<svg width="25" height="25" viewBox="0 0 25 25" fill="none" xmlns="http://www.w3.org/2000/svg">
<path d="M22.1211 12.5L23.5742 14.3164C23.7148 14.4961 23.8242 14.6914 23.9023 14.9023C23.9805 15.1133 24.0195 15.3359 24.0195 15.5703C24.0195 15.8047 23.9844 16.0273 23.9141 16.2383C23.8438 16.4492 23.7422 16.6406 23.6094 16.8125C23.4766 16.9844 23.3164 17.1328 23.1289 17.2578C22.9414 17.3828 22.7383 17.4766 22.5195 17.5391L20.2812 18.1602C20.2969 18.5586 20.3164 18.9609 20.3398 19.3672C20.3633 19.7734 20.3789 20.1797 20.3867 20.5859C20.3867 20.8672 20.3359 21.1289 20.2344 21.3711C20.1328 21.6133 19.9883 21.8242 19.8008 22.0039C19.6133 22.1836 19.3984 22.3281 19.1562 22.4375C18.9141 22.5469 18.6484 22.6016 18.3594 22.6016C18.1172 22.6016 17.8789 22.5586 17.6445 22.4727L15.4766 21.6523L14.1992 23.5859C14.0117 23.875 13.7695 24.0977 13.4727 24.2539C13.1758 24.4102 12.8516 24.4922 12.5 24.5C12.1562 24.5 11.8359 24.4219 11.5391 24.2656C11.2422 24.1094 10.9961 23.8828 10.8008 23.5859L9.52344 21.6523L7.35547 22.4727C7.12109 22.5586 6.88281 22.6016 6.64062 22.6016C6.35938 22.6016 6.09766 22.5508 5.85547 22.4492C5.61328 22.3477 5.39844 22.2031 5.21094 22.0156C5.02344 21.8281 4.87891 21.6133 4.77734 21.3711C4.67578 21.1289 4.62109 20.8672 4.61328 20.5859C4.61328 20.1797 4.625 19.7734 4.64844 19.3672C4.67188 18.9609 4.69531 18.5586 4.71875 18.1602L2.48047 17.5391C2.25391 17.4766 2.05078 17.3828 1.87109 17.2578C1.69141 17.1328 1.53516 16.9844 1.40234 16.8125C1.26953 16.6406 1.16797 16.4492 1.09766 16.2383C1.02734 16.0273 0.988281 15.8047 0.980469 15.5703C0.980469 15.3438 1.01953 15.125 1.09766 14.9141C1.17578 14.7031 1.28516 14.5039 1.42578 14.3164L2.87891 12.5L1.42578 10.6836C1.12891 10.3164 0.980469 9.89844 0.980469 9.42969C0.980469 9.19531 1.01562 8.97266 1.08594 8.76172C1.15625 8.55078 1.25781 8.35938 1.39062 8.1875C1.52344 8.01562 1.67969 7.86719 1.85938 7.74219C2.03906 7.61719 2.24609 7.52344 2.48047 7.46094L4.71875 6.83984C4.70312 6.44141 4.68359 6.03906 4.66016 5.63281C4.63672 5.22656 4.62109 4.82031 4.61328 4.41406C4.61328 4.13281 4.66406 3.87109 4.76562 3.62891C4.86719 3.38672 5.01172 3.17578 5.19922 2.99609C5.38672 2.81641 5.60156 2.67188 5.84375 2.5625C6.08594 2.45312 6.35156 2.39844 6.64062 2.39844C6.88281 2.39844 7.12109 2.44141 7.35547 2.52734L9.52344 3.34766L10.8008 1.41406C10.9883 1.125 11.2305 0.902344 11.5273 0.746094C11.8242 0.589844 12.1484 0.507812 12.5 0.5C12.8438 0.5 13.1641 0.578125 13.4609 0.734375C13.7578 0.890625 14.0039 1.11719 14.1992 1.41406L15.4766 3.34766L17.6445 2.52734C17.8789 2.44141 18.1172 2.39844 18.3594 2.39844C18.6406 2.39844 18.9023 2.44922 19.1445 2.55078C19.3867 2.65234 19.6016 2.79688 19.7891 2.98438C19.9766 3.17188 20.1211 3.38672 20.2227 3.62891C20.3242 3.87109 20.3789 4.13281 20.3867 4.41406C20.3867 4.82031 20.375 5.22656 20.3516 5.63281C20.3281 6.03906 20.3047 6.44141 20.2812 6.83984L22.5195 7.46094C22.7383 7.52344 22.9414 7.61719 23.1289 7.74219C23.3164 7.86719 23.4727 8.01562 23.5977 8.1875C23.7227 8.35938 23.8242 8.55078 23.9023 8.76172C23.9805 8.97266 24.0195 9.19531 24.0195 9.42969C24.0195 9.89844 23.8711 10.3164 23.5742 10.6836L22.1211 12.5ZM11 16.8242L17.668 10.168L16.332 8.83203L11 14.1758L8.66797 11.832L7.33203 13.168L11 16.8242Z" fill="white"/>
</svg>
