<svg width="24" height="24" viewBox="0 0 24 24" fill="none" xmlns="http://www.w3.org/2000/svg">
<g clip-path="url(#clip0_211_1427)">
<path d="M21.6211 12L23.0742 13.8164C23.2148 13.9961 23.3242 14.1914 23.4023 14.4023C23.4805 14.6133 23.5195 14.8359 23.5195 15.0703C23.5195 15.3047 23.4844 15.5273 23.4141 15.7383C23.3438 15.9492 23.2422 16.1406 23.1094 16.3125C22.9766 16.4844 22.8164 16.6328 22.6289 16.7578C22.4414 16.8828 22.2383 16.9766 22.0195 17.0391L19.7812 17.6602C19.7969 18.0586 19.8164 18.4609 19.8398 18.8672C19.8633 19.2734 19.8789 19.6797 19.8867 20.0859C19.8867 20.3672 19.8359 20.6289 19.7344 20.8711C19.6328 21.1133 19.4883 21.3242 19.3008 21.5039C19.1133 21.6836 18.8984 21.8281 18.6562 21.9375C18.4141 22.0469 18.1484 22.1016 17.8594 22.1016C17.6172 22.1016 17.3789 22.0586 17.1445 21.9727L14.9766 21.1523L13.6992 23.0859C13.5117 23.375 13.2695 23.5977 12.9727 23.7539C12.6758 23.9102 12.3516 23.9922 12 24C11.6562 24 11.3359 23.9219 11.0391 23.7656C10.7422 23.6094 10.4961 23.3828 10.3008 23.0859L9.02344 21.1523L6.85547 21.9727C6.62109 22.0586 6.38281 22.1016 6.14062 22.1016C5.85938 22.1016 5.59766 22.0508 5.35547 21.9492C5.11328 21.8477 4.89844 21.7031 4.71094 21.5156C4.52344 21.3281 4.37891 21.1133 4.27734 20.8711C4.17578 20.6289 4.12109 20.3672 4.11328 20.0859C4.11328 19.6797 4.125 19.2734 4.14844 18.8672C4.17188 18.4609 4.19531 18.0586 4.21875 17.6602L1.98047 17.0391C1.75391 16.9766 1.55078 16.8828 1.37109 16.7578C1.19141 16.6328 1.03516 16.4844 0.902344 16.3125C0.769531 16.1406 0.667969 15.9492 0.597656 15.7383C0.527344 15.5273 0.488281 15.3047 0.480469 15.0703C0.480469 14.8438 0.519531 14.625 0.597656 14.4141C0.675781 14.2031 0.785156 14.0039 0.925781 13.8164L2.37891 12L0.925781 10.1836C0.628906 9.81641 0.480469 9.39844 0.480469 8.92969C0.480469 8.69531 0.515625 8.47266 0.585938 8.26172C0.65625 8.05078 0.757812 7.85938 0.890625 7.6875C1.02344 7.51562 1.17969 7.36719 1.35938 7.24219C1.53906 7.11719 1.74609 7.02344 1.98047 6.96094L4.21875 6.33984C4.20312 5.94141 4.18359 5.53906 4.16016 5.13281C4.13672 4.72656 4.12109 4.32031 4.11328 3.91406C4.11328 3.63281 4.16406 3.37109 4.26562 3.12891C4.36719 2.88672 4.51172 2.67578 4.69922 2.49609C4.88672 2.31641 5.10156 2.17188 5.34375 2.0625C5.58594 1.95312 5.85156 1.89844 6.14062 1.89844C6.38281 1.89844 6.62109 1.94141 6.85547 2.02734L9.02344 2.84766L10.3008 0.914062C10.4883 0.625 10.7305 0.402344 11.0273 0.246094C11.3242 0.0898438 11.6484 0.0078125 12 0C12.3438 0 12.6641 0.078125 12.9609 0.234375C13.2578 0.390625 13.5039 0.617188 13.6992 0.914062L14.9766 2.84766L17.1445 2.02734C17.3789 1.94141 17.6172 1.89844 17.8594 1.89844C18.1406 1.89844 18.4023 1.94922 18.6445 2.05078C18.8867 2.15234 19.1016 2.29688 19.2891 2.48438C19.4766 2.67188 19.6211 2.88672 19.7227 3.12891C19.8242 3.37109 19.8789 3.63281 19.8867 3.91406C19.8867 4.32031 19.875 4.72656 19.8516 5.13281C19.8281 5.53906 19.8047 5.94141 19.7812 6.33984L22.0195 6.96094C22.2383 7.02344 22.4414 7.11719 22.6289 7.24219C22.8164 7.36719 22.9727 7.51562 23.0977 7.6875C23.2227 7.85938 23.3242 8.05078 23.4023 8.26172C23.4805 8.47266 23.5195 8.69531 23.5195 8.92969C23.5195 9.39844 23.3711 9.81641 23.0742 10.1836L21.6211 12ZM10.5 16.3242L17.168 9.66797L15.832 8.33203L10.5 13.6758L8.16797 11.332L6.83203 12.668L10.5 16.3242Z" fill="#E6521F"/>
</g>
<defs>
<clipPath id="clip0_211_1427">
<rect width="24" height="24" fill="white"/>
</clipPath>
</defs>
</svg>
