<svg width="21" height="23" viewBox="0 0 21 23" fill="none" xmlns="http://www.w3.org/2000/svg">
<path fill-rule="evenodd" clip-rule="evenodd" d="M17.8761 2.02373L14.8736 7.23418C16.3149 8.15741 17.5285 9.42901 18.4292 10.7628C19.5313 12.395 20.2566 14.2591 20.2566 15.8596C20.2566 18.4742 19.0335 20.3368 17.1032 21.4832C15.2493 22.5842 12.7987 23 10.2566 23C7.68208 23 5.23552 22.492 3.39214 21.3507C1.49916 20.1786 0.256592 18.3343 0.256592 15.8596C0.256592 14.2591 0.981898 12.395 2.08402 10.7628C2.99782 9.40951 4.23389 8.12023 5.703 7.1939L2.84551 1.36476L3.64619 0.807029C4.20153 0.420204 5.10741 0.121047 6.05166 0.0672689C7.02154 0.0120313 8.20452 0.206799 9.19734 1.0241C10.0108 1.69377 10.4037 1.76837 10.594 1.76194C10.8107 1.75463 11.1006 1.64007 11.741 1.15681C12.5139 0.573573 13.5048 0.090634 14.5287 0.0111934C15.616 -0.0731694 16.7415 0.311392 17.4863 1.43546L17.8761 2.02373ZM13.0958 2.97437C13.6448 2.56005 14.2344 2.31272 14.7023 2.27642C14.8522 2.26479 14.9848 2.27317 15.1036 2.30547L12.4883 6.8439C12.4202 6.87788 12.3284 6.91917 12.2112 6.96237C11.8426 7.09823 11.2081 7.25862 10.2566 7.25862C9.51666 7.25862 8.8736 7.10617 8.41422 6.95166C8.26348 6.90096 8.13466 6.85075 8.03114 6.80704L5.85598 2.36981C5.95832 2.35396 6.06647 2.34201 6.17927 2.33559C6.77659 2.30157 7.34092 2.43137 7.76745 2.7825C8.72817 3.57337 9.65814 4.06676 10.6697 4.03262C11.6548 3.99936 12.4459 3.4648 13.0958 2.97437ZM11.6151 11.279C11.486 11.2226 11.3049 11.1529 11.0901 11.0971C10.9724 10.5963 10.5251 10.2235 9.99132 10.2235C9.36777 10.2235 8.86228 10.7321 8.86228 11.3595L8.86228 11.5194C8.1255 12.0852 7.74325 12.9316 7.85703 13.8244C7.98178 14.8034 8.67214 15.6026 9.62186 15.9878L9.92677 16.1143L9.93693 16.1184C10.2496 16.2446 10.3026 16.4215 10.308 16.4642C10.3112 16.4895 10.3084 16.5144 10.2917 16.5461C10.275 16.5778 10.2268 16.6481 10.0964 16.7258L10.0951 16.726C10.0836 16.7281 10.0237 16.7388 9.88871 16.7052C9.81123 16.6859 9.73989 16.659 9.68791 16.6363C9.66298 16.6254 9.64525 16.6167 9.63664 16.6124L9.63264 16.6103C9.09071 16.3111 8.40912 16.5062 8.1055 17.0497C7.79996 17.5966 7.99291 18.2892 8.53647 18.5966L8.53919 18.5981L8.54949 18.6039C8.55477 18.6068 8.56099 18.6102 8.56811 18.614C8.58235 18.6216 8.60028 18.6311 8.62161 18.6419C8.66412 18.6634 8.72095 18.6908 8.78971 18.7208C8.91934 18.7773 9.10136 18.8474 9.3173 18.9033C9.42798 19.4189 9.88615 19.8031 10.431 19.7982C11.0545 19.7926 11.5555 19.2794 11.5498 18.6521L11.5483 18.4759C12.2813 17.9101 12.6612 17.0658 12.5478 16.1753C12.423 15.1963 11.7326 14.3971 10.7829 14.0119L10.478 13.8855L10.4679 13.8813C10.1552 13.7552 10.1022 13.5782 10.0968 13.5355C10.0935 13.5103 10.0964 13.4853 10.1131 13.4536C10.1298 13.422 10.178 13.3516 10.3084 13.2739L10.3097 13.2737C10.3212 13.2716 10.3811 13.2609 10.5161 13.2945C10.5936 13.3138 10.6649 13.3408 10.7169 13.3634C10.7418 13.3743 10.7595 13.383 10.7681 13.3874L10.7721 13.3894C11.3141 13.6886 11.9957 13.4935 12.2993 12.95C12.6048 12.4031 12.4119 11.7106 11.8683 11.4032L11.8656 11.4016L11.8625 11.3999L11.8553 11.3959C11.85 11.393 11.8438 11.3896 11.8367 11.3858C11.8224 11.3781 11.8045 11.3687 11.7832 11.3579C11.7407 11.3364 11.6838 11.3089 11.6151 11.279Z" fill="black"/>
</svg>
