<svg width="20" height="25" viewBox="0 0 20 25" fill="none" xmlns="http://www.w3.org/2000/svg">
<path d="M9.875 0C15.34 0 19.75 4.15818 19.75 9.26367C19.7498 12.1917 18.2877 15.3125 16.6543 17.918C14.9993 20.5578 13.0591 22.8373 11.8926 24.1221C10.8302 25.2922 8.91979 25.2922 7.85742 24.1221C6.69094 22.8373 4.7507 20.5578 3.0957 17.918C1.46232 15.3125 0.000152696 12.1917 0 9.26367C0 4.15818 4.41002 3.21208e-08 9.875 0ZM10.0615 3.12695C6.56709 3.12705 3.73438 5.7639 3.73438 9.01562C3.73455 12.2672 6.5672 14.9032 10.0615 14.9033C13.5559 14.9033 16.3885 12.2673 16.3887 9.01562C16.3887 5.76384 13.556 3.12695 10.0615 3.12695ZM10.0615 5.52051C12.1355 5.52051 13.8174 7.08569 13.8174 9.01562C13.8172 10.9454 12.1354 12.5098 10.0615 12.5098C7.98773 12.5097 6.30682 10.9454 6.30664 9.01562C6.30664 7.08576 7.98762 5.52061 10.0615 5.52051Z" fill="black"/>
</svg>
